<svg xmlns="http://www.w3.org/2000/svg" viewBox="0 0 90.14 90.1"><defs><style>.cls-1{fill:#00aeef;}</style></defs><g id="Layer_2" data-name="Layer 2"><g id="Layer_1-2" data-name="Layer 1"><path class="cls-1" d="M52.13,9.13,51.31,0l1.88.42.34,4.38.07,2.82h0L54.89,5.1l2.19-3.8,1.81.41L54.2,9.6Zm6.71,1.95.65-1.37,1,.48L62.94,5l-1-.48.65-1.37L66.32,5l-.64,1.37-1-.49L62.22,11l1,.48-.65,1.36Zm6.09,3.11,5.28-6.95,4.72,3.59-1,1.34L70.7,9.73l-1.08,1.41,2.76,2.1-1,1.34L68.6,12.49,67.46,14l3.22,2.44-1,1.35Zm7.59,6.38,5.9-6.72,1.1,1.52-2.9,3.12-1.7,1.8,0,0,2.28-1,4-1.68,1.22,1.68-2.82,3.25-1.65,1.86,0,0,2.24-1.05,3.88-1.78,1,1.46-8.25,3.48-1.27-1.75,3.18-3.66,1.3-1.47,0,0-1.81.77-4.47,1.88ZM83.31,33.7l1.48-.26,1.55,8.71-1.48.26ZM81,52l9.13-.85L89.72,53l-4.37.36-2.82.08v0l2.53,1.24,3.8,2.18-.4,1.81L80.55,54Zm-1.93,6.72,1.37.64-.48,1,5.16,2.43.48-1,1.37.64-1.76,3.76-1.37-.65.48-1-5.16-2.43-.48,1-1.37-.64ZM76,64.78,83,70l-3.58,4.74-1.35-1,2.44-3.22-1.42-1.07L77,72.23l-1.34-1,2.08-2.76-1.5-1.14-2.44,3.23-1.34-1Zm-6.35,7.61,6.73,5.88-1.51,1.11-3.14-2.9-1.8-1.69,0,0,1,2.28,1.69,4-1.68,1.22-3.26-2.81-1.86-1.64,0,0,1.06,2.24L68.59,84,67.13,85l-3.5-8.24,1.74-1.27,3.68,3.17L70.52,80l0,0-.78-1.81-1.89-4.46ZM56.54,83.22l.27,1.48L48.1,86.28l-.27-1.48ZM38.27,81l.88,9.12-1.88-.41-.38-4.37-.08-2.82h0L35.54,85l-2.17,3.82-1.82-.4,4.64-7.92Zm-6.73-1.91-.64,1.37-1-.48-2.4,5.17,1,.48L27.86,87,24.1,85.22l.64-1.37,1,.48,2.41-5.17-1-.47.64-1.37ZM25.46,76l-5.24,7-4.75-3.56,1-1.35,3.23,2.42,1.07-1.42L18,77l1-1.35,2.77,2.08,1.13-1.51L19.69,73.8l1-1.35Zm-7.65-6.35-5.87,6.76-1.11-1.51,2.89-3.15L15.4,70l0,0-2.28,1-3.95,1.7L7.93,70.94l2.79-3.26,1.64-1.87,0,0-2.23,1.06L6.24,68.65,5.17,67.2l8.24-3.53,1.28,1.74-3.16,3.68-1.29,1.48,0,0,1.8-.78,4.46-1.91Zm-10.88-13-1.47.27L3.85,48.17l1.48-.27ZM9.12,38.33,0,39.23l.41-1.88L4.77,37l2.83-.09v0L5.07,35.61,1.25,33.45l.39-1.82,7.93,4.62ZM11,31.59,9.64,31l.47-1-5.17-2.4-.48,1-1.37-.63,1.74-3.77,1.38.64-.48,1,5.18,2.39.47-1,1.37.63Zm3-6.1-7-5.21,3.54-4.76,1.36,1L9.54,19.77,11,20.83,13,18.05l1.35,1-2.06,2.77L13.83,23l2.41-3.24,1.35,1Zm6.33-7.66L13.6,12l1.51-1.11,3.15,2.88,1.82,1.67,0,0-1-2.28L17.4,9.18,19.06,8l3.28,2.79,1.87,1.63,0,0-1.07-2.23L21.36,6.26,22.8,5.19l3.56,8.22-1.74,1.28-3.69-3.15-1.48-1.28,0,0,.78,1.8,1.93,4.45ZM33.13,7l-.29-1.48,8.69-1.69.29,1.48Zm12,34.06a4,4,0,1,0,4,4A4,4,0,0,0,45.09,41.06Z"/></g></g></svg>